<svg xmlns="http://www.w3.org/2000/svg" width="20" height="20" viewBox="0 0 24 24">
  <rect width="24" height="24" rx="5" fill="#ede9fe"/>
  <path d="M20 21v-8a2 2 0 0 0-2-2H6a2 2 0 0 0-2 2v8" stroke="#6c3aed" stroke-width="2" stroke-linecap="round" stroke-linejoin="round" fill="none"/>
  <path d="M4 16s.5-1 2-1 2.5 2 4 2 2.5-2 4-2 2.5 2 4 2 2-1 2-1" stroke="#6c3aed" stroke-width="2" stroke-linecap="round" stroke-linejoin="round" fill="none"/>
  <path d="M2 21h20" stroke="#6c3aed" stroke-width="2" stroke-linecap="round"/>
  <path d="M7 8v3M12 8v3M17 8v3" stroke="#6c3aed" stroke-width="2" stroke-linecap="round"/>
  <path d="M7 4h.01M12 3h.01M17 4h.01" stroke="#6c3aed" stroke-width="2" stroke-linecap="round"/>
</svg>
